<?xml version="1.0" encoding="UTF-8"?>
<svg width="25px" height="25px" viewBox="0 0 25 25" version="1.1" xmlns="http://www.w3.org/2000/svg" xmlns:xlink="http://www.w3.org/1999/xlink">
    <title>ico-vcenter-info-blk</title>
    <g id="Page-1" stroke="none" stroke-width="1" fill="none" fill-rule="evenodd">
        <g id="vcenter-info" transform="translate(0.990034, 0.769843)" fill="#767676" fill-rule="nonzero">
            <path d="M22.9082498,0 C23.4229342,0 23.8471291,0.387431722 23.9051024,0.886563128 L23.9118544,1.00360463 L23.9118544,15.5519825 C23.9118544,16.0666669 23.5244227,16.4908618 23.0252913,16.5488352 L22.9082498,16.5555871 L15.9802308,16.5554842 L15.9802865,22.9963954 C15.9802865,23.5001291 15.6091658,23.9171829 15.1254285,23.9890529 L15.0119153,23.9993931 L1.00360463,24 C0.488920207,24 0.0647253121,23.6125683 0.00675198232,23.1134369 L1.88560279e-11,22.9963954 L1.88560279e-11,8.62851327 C1.88560279e-11,8.11382885 0.387431722,7.68963395 0.886563128,7.63166062 L1.00360463,7.62490864 L7.45133359,7.6248421 L7.45148472,1.00360463 C7.45148472,0.49987094 7.82260537,0.0828171227 8.30634275,0.0109471102 L8.4198559,0.000606908105 L22.9082498,0 Z M21.6646436,1.71096661 L9.28069726,1.71096661 C9.0582041,1.71096661 8.873157,1.87267581 8.83478225,2.08592533 L8.82748032,2.16809468 L8.82748032,9.22023355 L2.24721076,9.22023355 C2.0247176,9.22023355 1.83967049,9.38194276 1.80129574,9.59519228 L1.79399381,9.67736163 L1.79399381,21.8319053 C1.79399381,22.0563185 1.95431945,22.2429625 2.16574444,22.2816684 L2.24721076,22.2890334 L14.0747666,22.2890334 C14.2972598,22.2890334 14.4823069,22.1273242 14.5206816,21.9140747 L14.5279835,21.8319053 L14.5279835,14.9504661 L21.6646436,14.9504661 C21.8871368,14.9504661 22.0721839,14.7887569 22.1105587,14.5755074 L22.1178606,14.493338 L22.1178606,2.16809468 C22.1178606,1.94368147 21.9575349,1.75703747 21.74611,1.71833156 L21.6646436,1.71096661 Z M8.61515341,11.8138538 L8.61515341,19.8418538 L5.17753742,19.8418538 C4.62525267,19.8418538 4.17753742,19.3941386 4.17753742,18.8418538 L4.17753742,12.8130168 C4.17753742,12.260732 4.62525267,11.813 5.17753742,11.813 L8.61515341,11.8138538 Z M13.5394829,9.99643549 L13.5394829,18.6314098 L10.3714062,18.6314098 L10.3714062,9.99643549 L13.5394829,9.99643549 Z M13.6428347,4.63621606 L18.7485378,4.6371667 C19.3008226,4.6371667 19.7485378,5.08488195 19.7485378,5.6371667 L19.7485378,11.6660037 C19.7485378,12.2182885 19.3008226,12.6660037 18.7485378,12.6660037 L15.0923062,12.6660037 L15.0925894,8.78448044 L13.9420373,8.78542152 L14.0541331,8.6838079 L14.0541331,8.6838079 C14.4420134,8.30454718 14.6359535,7.27292667 14.6359535,6.70403559 C14.6359535,6.13514452 14.4420134,5.33146183 14.0541331,4.94358155 C13.9291209,4.81856936 13.7920215,4.71677416 13.6428347,4.63621606 Z M11.9460855,5.36859015 C12.4184892,5.36859015 12.8023173,5.51621633 13.0975697,5.8114687 C13.392822,6.10672106 13.5404482,6.47086564 13.5404482,6.90390244 C13.5404482,7.33693924 13.392822,7.69780324 13.0975697,7.98649444 C12.8023173,8.27518564 12.4184892,8.41953124 11.9460855,8.41953124 C11.486804,8.41953124 11.1095371,8.27518564 10.8142847,7.98649444 C10.5190324,7.69780324 10.3714062,7.33693924 10.3714062,6.90390244 C10.3714062,6.47086564 10.5190324,6.10672106 10.8142847,5.8114687 C11.1095371,5.51621633 11.486804,5.36859015 11.9460855,5.36859015 Z" id="Shape"></path>
        </g>
    </g>
</svg>