<svg xmlns="http://www.w3.org/2000/svg" width="12" height="12" viewBox="0 0 12 12">
    <g fill="none" fill-rule="evenodd">
        <path fill="#D8D8D8" fill-opacity="0" d="M0 0H12V12H0z"/>
        <path fill="#3E3F41" d="M8.183 2.685c1.467 0 2.667 1.147 2.75 2.594l.005.161v1.12c0 1.467-1.147 2.666-2.593 2.75l-.162.005H3.817c-1.467 0-2.667-1.147-2.75-2.594l-.005-.161V5.44c0-1.467 1.147-2.666 2.593-2.75l.162-.005h4.366zm0 .719H3.817c-1.076 0-1.957.834-2.032 1.891l-.005.145v1.12c0 1.075.835 1.956 1.891 2.03l.146.006h4.366c1.076 0 1.957-.834 2.032-1.891l.005-.145V5.44c0-1.075-.835-1.956-1.891-2.03l-.146-.006zm-2.321.534V7.25h1.403l-.086.667H5.034v-3.98h.828z"/>
    </g>
</svg>
