<?xml version="1.0" encoding="UTF-8"?>
<svg width="25px" height="25px" viewBox="0 0 25 25" version="1.1" xmlns="http://www.w3.org/2000/svg" xmlns:xlink="http://www.w3.org/1999/xlink">
    <title>ico-venice-info-blk</title>
    <g id="Page-1" stroke="none" stroke-width="1" fill="none" fill-rule="evenodd">
        <g id="venice-info" transform="translate(0.990034, 0.139686)">
            <polygon id="Path" points="0 0 24 0 24 24 0 24"></polygon>
            <path d="M14.6260859,12.7639043 L23,15.204 L22.9930859,20.5048341 C22.9930859,20.7688262 22.779078,20.9828907 22.5150859,20.9828907 L17.7320859,20.9828907 C17.6053124,20.9828907 17.4837312,20.9324735 17.3940888,20.8428311 C17.3044464,20.7531887 17.2521232,20.631605 17.2540859,20.5048341 C17.2917329,18.0731444 16.6925583,15.6464464 14.626706,14.5761771 L14.6260859,12.7639043 Z M9.37208586,12.7319043 L9.37222898,14.4700362 C7.31960513,15.3633439 6.73308586,17.5068911 6.73308586,20.5048341 C6.73308586,20.6319548 6.68245195,20.7538401 6.59237653,20.8435402 C6.50230111,20.9332403 6.38020551,20.983366 6.25308586,20.982894 L1.47208586,20.982894 C1.3451392,20.9830997 1.22330097,20.9328564 1.13344218,20.8431852 C1.0435834,20.753514 0.993085856,20.631781 0.993085856,20.5048341 L1,15.074 L9.37208586,12.7319043 Z M13.5800986,10.4878347 L13.5800986,19.122809 L10.4120219,19.122809 L10.4120219,10.4878347 L13.5800986,10.4878347 Z M14.765,6.647 L22.647,8.795 C22.8550532,8.85101057 22.9997286,9.0395395 23,9.255 L23,14.427 L21.998,14.161 L21.998,12.414 C21.998,11.624 21.661,10.98 20.87,10.98 C20.08,10.98 19.734,11.625 19.734,12.415 L19.734,13.445 L18.172,13.045 L18.172,10.503 C18.172,9.713 17.733,9.07 16.942,9.07 C16.152,9.07 15.702,9.713 15.702,10.503 L15.702,12.416 L14.765,12.096 L14.765,6.647 Z M9.235,6.647 L9.235,12.065 L8.311,12.37 L8.311,10.46 C8.311,9.67 7.917,9.07 7.126,9.07 C6.335,9.07 5.896,9.67 5.896,10.46 L5.896,12.944 L4.472,13.326 L4.472,12.37 C4.472,11.58 4.097,10.98 3.305,10.98 C2.515,10.98 2.071,11.58 2.071,12.37 L2.071,14.014 L1,14.3 L1,9.256 C1,9.041 1.144,8.852 1.353,8.795 L9.235,6.647 Z M11.9867012,5.85998935 C12.459105,5.85998935 12.842933,6.00761553 13.1381854,6.30286789 C13.4334378,6.59812026 13.5810639,6.96226484 13.5810639,7.39530164 C13.5810639,7.82833844 13.4334378,8.18920244 13.1381854,8.47789364 C12.842933,8.76658484 12.459105,8.91093044 11.9867012,8.91093044 C11.5274197,8.91093044 11.1501528,8.76658484 10.8549005,8.47789364 C10.5596481,8.18920244 10.4120219,7.82833844 10.4120219,7.39530164 C10.4120219,6.96226484 10.5596481,6.59812026 10.8549005,6.30286789 C11.1501528,6.00761553 11.5274197,5.85998935 11.9867012,5.85998935 Z M12.214,3.05 L14.127,4.006 C14.2881969,4.08644537 14.3903187,4.2508461 14.391,4.431 L14.395,5.546 L14.404,5.549 L14.4058343,6.09765062 C14.2902506,5.89101076 14.1436251,5.69885712 13.9659577,5.52118969 C13.4575203,5.01275237 12.7965518,4.7585337 11.9830521,4.7585337 C11.1921496,4.7585337 10.5424797,5.01275237 10.0340423,5.52118969 C9.85608927,5.69914276 9.70927799,5.89162865 9.5936085,6.09864739 L9.596,5.549 L9.609,5.545 L9.609,4.433 C9.609,4.253 9.711,4.087 9.874,4.006 L11.787,3.05 C11.921497,2.9832058 12.079503,2.9832058 12.214,3.05 Z" id="Shape" fill="#767676" fill-rule="nonzero"></path>
        </g>
    </g>
</svg>