<svg xmlns="http://www.w3.org/2000/svg" width="12" height="12" viewBox="0 0 12 12">
    <g fill="none" fill-rule="evenodd">
        <path fill="#D8D8D8" fill-opacity="0" d="M0 0H12V12H0z"/>
        <path fill="#3E3F41" d="M8.278 2.541c1.531 0 2.783 1.197 2.87 2.706l.005.17v1.167c0 1.531-1.197 2.783-2.706 2.87l-.169.005H3.722C2.19 9.459.939 8.262.852 6.753l-.005-.17V5.417c0-1.531 1.197-2.783 2.706-2.87l.169-.005h4.556zm0 .75H3.722c-1.123 0-2.042.87-2.12 1.973l-.005.152v1.168c0 1.122.87 2.042 1.973 2.12l.152.005h4.556c1.123 0 2.042-.87 2.12-1.973l.005-.152V5.416c0-1.122-.87-2.042-1.973-2.12l-.152-.005zm-2.269.461c.272 0 .511.044.717.132.154.066.3.156.435.269l.132.121-.402.462-.132-.106c-.088-.063-.176-.113-.264-.149-.132-.054-.27-.081-.414-.081-.164 0-.293.041-.387.123-.094.082-.141.195-.141.339 0 .096.021.177.063.243.042.066.115.129.219.189s.256.126.456.198c.248.092.451.192.609.3.158.108.28.244.366.408.086.164.129.366.129.606 0 .248-.059.469-.177.663-.118.194-.289.347-.513.459-.224.112-.486.168-.786.168-.501 0-.928-.152-1.281-.455l-.129-.121.432-.48.114.093c.113.087.227.156.339.207.15.068.311.102.483.102.196 0 .348-.052.456-.156.108-.104.162-.246.162-.426 0-.16-.049-.289-.147-.387-.078-.078-.21-.156-.395-.233l-.148-.058c-.408-.152-.7-.324-.876-.516-.176-.192-.264-.44-.264-.744 0-.228.058-.431.174-.609.116-.178.276-.316.48-.414.204-.098.434-.147.69-.147z"/>
    </g>
</svg>
